<svg xmlns="http://www.w3.org/2000/svg" viewBox="0 0 512 512"><title>Food_Truck</title><g id="Food_Truck" data-name="Food Truck"><g id="Food_Truck-2" data-name="Food Truck"><path d="M421.9,211.0873H324.25V125.5648a9.4517,9.4517,0,0,0-9.45-9.45H175.4122a9.4494,9.4494,0,0,0-9.45,9.45v85.5225H153.1066a9.4583,9.4583,0,0,0-7.0875,3.1977L83.0128,285.682a9.4681,9.4681,0,0,0-2.3625,6.2532v71.3979a9.45,9.45,0,0,0,9.45,9.45h31.0689a32.5438,32.5438,0,0,0,62.2881,0h77.0994a32.5456,32.5456,0,0,0,62.2908,0h29.4876a9.4517,9.4517,0,0,0,9.45-9.45V315.0436l66.2031-55.78-.0279-.0315a9.3843,9.3843,0,0,0,3.3894-7.1946v-31.5A9.4494,9.4494,0,0,0,421.9,211.0873ZM184.8622,135.0148H305.35v40.95H184.8622Zm0,59.85H305.35v16.2225H184.8622ZM342.8851,353.8831H322.8475a32.5482,32.5482,0,0,0-62.2908,0H183.4573a32.5463,32.5463,0,0,0-62.2881,0H99.55V295.51l57.8187-65.5227H342.8815V353.8831Zm18.9-92.3958h34.2342l-34.2342,28.8414Z"/><rect x="175.4122" y="247.2907" width="139.3875" height="59.85"/></g></g></svg>